<svg xmlns="http://www.w3.org/2000/svg" xmlns:svg="http://www.w3.org/2000/svg" id="svg4" width="18" height="18.043" version="1.1" viewBox="0 0 18 18.043"><path id="path2" d="m 8.03,5.0375961 h 3.94 l 1.06,-4.23999995 a 1,1 0 1 1 1.94,0.47999995 l -0.94,3.76 H 17 a 1,1 0 0 1 0,2 h -3.47 l -1,3.9999999 H 15 a 1,1 0 1 1 0,2 h -2.97 l -1.06,4.25 a 1.0004624,1.0004624 0 1 1 -1.94,-0.49 l 0.94,-3.76 H 6.03 l -1.06,4.25 a 1.0004624,1.0004624 0 1 1 -1.94,-0.49 l 0.94,-3.76 H 1 a 1,1 0 0 1 0,-2 h 3.47 l 1,-3.9999999 H 3 a 1,1 0 0 1 0,-2 H 5.97 L 7.03,0.79759615 A 1,1 0 1 1 8.97,1.2775961 Z m -0.5,2 -1,3.9999999 h 3.94 l 1,-3.9999999 z" class="heroicon-ui"/></svg>